<svg xmlns="http://www.w3.org/2000/svg" viewBox="0 0 1200 750" preserveAspectRatio="xMidYMid slice" role="img" aria-label="Network Architecture">
  <defs>
    <linearGradient id="bg" x1="0" y1="0" x2="1" y2="1">
      <stop offset="0" stop-color="#141821"/><stop offset="0.55" stop-color="#1b2130"/><stop offset="1" stop-color="#0d1017"/>
    </linearGradient>
    <linearGradient id="acc" x1="0" y1="0" x2="1" y2="1">
      <stop offset="0" stop-color="#ffb687"/><stop offset="0.5" stop-color="#ff7720"/><stop offset="1" stop-color="#f74806"/>
    </linearGradient>
    <radialGradient id="glow" cx="0.5" cy="0.4" r="0.7">
      <stop offset="0" stop-color="#ff7720" stop-opacity="0.35"/><stop offset="1" stop-color="#ff7720" stop-opacity="0"/>
    </radialGradient>
  </defs>
  <rect width="1200" height="750" fill="url(#bg)"/>
  <g stroke="#2b3242" stroke-width="1" opacity="0.5">
    <path d="M0 150 H1200 M0 300 H1200 M0 450 H1200 M0 600 H1200"/>
    <path d="M150 0 V750 M350 0 V750 M600 0 V750 M850 0 V750 M1050 0 V750"/>
  </g>
  <rect width="1200" height="750" fill="url(#glow)"/>
  <g stroke="url(#acc)" stroke-width="3" opacity="0.85">
    <path d="M600 300 L360 200 M600 300 L840 200 M600 300 L360 420 M600 300 L840 420 M360 200 L360 420 M840 200 L840 420 M360 200 L840 200"/>
  </g>
  <g>
    <g transform="translate(600 300)"><rect x="-56" y="-40" width="112" height="80" rx="12" fill="#10141d" stroke="url(#acc)" stroke-width="4"/><circle cx="-24" cy="0" r="7" fill="url(#acc)"/><circle cx="0" cy="0" r="7" fill="url(#acc)"/><circle cx="24" cy="0" r="7" fill="url(#acc)"/></g>
    <g fill="#10141d" stroke="url(#acc)" stroke-width="4">
      <circle cx="360" cy="200" r="34"/><circle cx="840" cy="200" r="34"/><circle cx="360" cy="420" r="34"/><circle cx="840" cy="420" r="34"/>
    </g>
    <g fill="url(#acc)"><circle cx="360" cy="200" r="9"/><circle cx="840" cy="200" r="9"/><circle cx="360" cy="420" r="9"/><circle cx="840" cy="420" r="9"/></g>
  </g>
  <text x="600" y="620" font-family="Poppins,sans-serif" font-size="44" font-weight="800" fill="#f4f5f8" text-anchor="middle" letter-spacing="2">NETWORK ARCHITECTURE</text>
  <text x="600" y="658" font-family="Poppins,sans-serif" font-size="21" font-weight="500" fill="#ff9a55" text-anchor="middle" letter-spacing="5">ROUTING · SWITCHING · LAN / WAN · VPN</text>
</svg>
