<svg xmlns="http://www.w3.org/2000/svg" viewBox="0 0 1200 750" preserveAspectRatio="xMidYMid slice" role="img" aria-label="IP Telephony">
  <defs>
    <linearGradient id="bg" x1="0" y1="0" x2="1" y2="1">
      <stop offset="0" stop-color="#141821"/><stop offset="0.55" stop-color="#1b2130"/><stop offset="1" stop-color="#0d1017"/>
    </linearGradient>
    <linearGradient id="acc" x1="0" y1="0" x2="1" y2="1">
      <stop offset="0" stop-color="#ffb687"/><stop offset="0.5" stop-color="#ff7720"/><stop offset="1" stop-color="#f74806"/>
    </linearGradient>
    <radialGradient id="glow" cx="0.5" cy="0.4" r="0.7">
      <stop offset="0" stop-color="#ff7720" stop-opacity="0.35"/><stop offset="1" stop-color="#ff7720" stop-opacity="0"/>
    </radialGradient>
  </defs>
  <rect width="1200" height="750" fill="url(#bg)"/>
  <g stroke="#2b3242" stroke-width="1" opacity="0.5">
    <path d="M0 150 H1200 M0 300 H1200 M0 450 H1200 M0 600 H1200"/>
    <path d="M150 0 V750 M350 0 V750 M600 0 V750 M850 0 V750 M1050 0 V750"/>
  </g>
  <rect width="1200" height="750" fill="url(#glow)"/>
  <g transform="translate(430 350)">
    <path d="M-70 -130 c-30 0 -46 20 -40 50 l40 210 c6 30 24 44 54 44 h32 c30 0 48 -14 54 -44 l40 -210 c6 -30 -10 -50 -40 -50 z" fill="#10141d" stroke="url(#acc)" stroke-width="4"/>
    <rect x="-58" y="-108" width="116" height="150" rx="10" fill="#0d1017" stroke="url(#acc)" stroke-width="3"/>
    <g fill="url(#acc)"><circle cx="-30" cy="80" r="9"/><circle cx="0" cy="80" r="9"/><circle cx="30" cy="80" r="9"/><circle cx="-30" cy="120" r="9"/><circle cx="0" cy="120" r="9"/><circle cx="30" cy="120" r="9"/></g>
  </g>
  <g transform="translate(720 350)" fill="none" stroke="url(#acc)" stroke-width="6" stroke-linecap="round">
    <path d="M0 0 v-60 M50 0 v-120 M100 0 v-40 M150 0 v-90 M200 0 v-140 M250 0 v-50 M300 0 v-100"/>
    <path d="M0 20 v40 M50 20 v90 M100 20 v30 M150 20 v70 M200 20 v110 M250 20 v40 M300 20 v80"/>
  </g>
  <text x="600" y="620" font-family="Poppins,sans-serif" font-size="46" font-weight="800" fill="#f4f5f8" text-anchor="middle" letter-spacing="2">IP-TELEPHONY</text>
  <text x="600" y="658" font-family="Poppins,sans-serif" font-size="21" font-weight="500" fill="#ff9a55" text-anchor="middle" letter-spacing="5">VoIP · IVR · CALL ROUTING · SIP</text>
</svg>
